#!OML:ASF F:\VICON\USERDATA\INSTALL\rory3\rory3.ASF
:FULLY-SPECIFIED
:DEGREES
37
root -0.007690023673626589 18.520261666091745 11.051585505814037 4.124332353340276 -2.308474881168795 0.5616675580122097
lfemur 14.20877425630241 -5.241472774178143 -28.251513771425596
ltibia 47.15357782637098
lfoot 22.937637104152532 -17.59329105110581
ltoes -7.450924131354048
rfemur -41.4699358124026 -0.5319778880216492 26.063644773152173
rtibia 24.87125390217055
rfoot 4.71417826798289 -2.022078575615039
rtoes -13.199550494712845
lowerback 14.53322277614738 -1.9045965022882712 -2.2610323690489738
upperback -1.370120127198772 -2.7845015297760938 1.9902899441647612
thorax -9.39489329353884 -1.112099815949048 4.3900712603934835
lowerneck -21.509752486094456 -2.3089312113961435 -2.2862895220869626
upperneck 13.885094520468565 -2.7991643346449773 1.7415813570436436
head 7.778764958170527 -1.2541960459424275 0.5327122579719897
lclavicle -3.068620829153112e-15 8.11847060115059e-16
lhumerus -37.06040265427632 -21.20875001430799 94.47544560585239
lradius 113.77676769279964
lwrist 33.85034369136435
lhand -24.696402479700694 0.47342184165222245
lfingers 7.12502
lthumb 1.804858381014411 30.446557737171467
rclavicle -3.068620829153112e-15 8.11847060115059e-16
rhumerus -66.1238337474322 -1.3248858936878438 -93.8516591651514
rradius 111.6986421870543
rwrist -8.590061314393603
rhand -15.996980705360546 40.35836203679841
rfingers 7.12502
rthumb 10.202447316053037 10.374251815312796
38
root 0.014579347073842036 18.383140186804436 12.576489814287083 3.5187172164411034 -2.62489463824154 0.6192317851247409
lfemur 13.217703765502185 -4.369335512294059 -27.250840021241746
ltibia 53.575033159832834
lfoot 22.295858842635294 -16.873493012915667
ltoes -4.91832389544552
rfemur -39.48753197586282 -0.5821935129460318 26.94416551934983
rtibia 28.359292318848176
rfoot 4.199203398208676 -0.8163929714964411
rtoes -8.120439566490907
lowerback 14.902530988570428 -1.6209900775620936 -1.9408213219351211
upperback -1.067844100129524 -2.372142151785626 1.993163549464565
thorax -9.379772139454138 -0.9341428104633059 4.280599841466106
lowerneck -21.141357986927495 -2.3151385195549006 -2.34764696770868
upperneck 13.84239035502998 -2.766421809611256 1.6760408193237701
head 7.729047815296753 -1.26202130240917 0.5207039154415684
lclavicle -2.03889295019658e-15 1.5587463500581089e-15
lhumerus -37.62705926733847 -20.361220085094406 94.9370693907531
lradius 111.17705618318298
lwrist 34.00138248818343
lhand -25.209977914151292 -0.014075135010257478
lfingers 7.12502
lthumb 1.308858640749343 29.95831024538269
rclavicle -2.03889295019658e-15 1.5587463500581089e-15
rhumerus -64.51004668537838 -1.1623298307016245 -93.90729656051342
rradius 111.27635023295849
rwrist -8.338250923048982
rhand -16.18767266737297 40.45880406671508
rfingers 7.12502
rthumb 10.01851676416884 10.515354450854483
39
root 0.018980143303598984 18.16670701434039 12.40009610717607 2.851919959428442 -3.227943787626034 0.23867152781940648
lfemur 9.81229237504215 -3.190078797750474 -25.929628325520024
ltibia 59.908847952889495
lfoot 20.352872975674735 -16.234355806807326
ltoes -3.7948730558362085
rfemur -38.73584269451935 -0.4646478770396474 27.622482786085584
rtibia 30.97619896327724
rfoot 2.22919004509522 -0.07021592526952602
rtoes -1.4532698668147463
lowerback 15.261314922514256 -1.3484242387802667 -1.6608832338086776
upperback -0.8306442423779365 -1.9500732785515145 2.0247671134279375
thorax -9.48406472517084 -0.7506593480909786 3.8715151913111443
lowerneck -20.90269976704365 -2.4235970985455646 -2.384676509803111
upperneck 13.742113346726697 -2.8956103511551516 1.5174587546410543
head 7.666137510818062 -1.3423034496723996 0.4533313783668913
lclavicle -2.908329710125461e-15 9.28103596160703e-16
lhumerus -39.316148270536154 -19.990604295631453 95.5092855480247
lradius 107.50075355623895
lwrist 33.939629224286485
lhand -25.620689782683506 -0.5380771819804544
lfingers 7.12502
lthumb 0.9122035001361533 29.433225371051947
rclavicle -2.908329710125461e-15 9.28103596160703e-16
rhumerus -63.007237513867835 -1.0008667944462246 -94.15685078429753
rradius 110.05699877951749
rwrist -8.323579845583541
rhand -16.57550659572222 40.30813607287032
rfingers 7.12502
rthumb 9.644308410633476 10.385681286435014
40
root 0.0025636629506637088 17.930195080228295 14.567038717268229 2.37534130393641 -3.640232311159195 -0.34473531225410126
lfemur 7.239849441074584 -1.5219507834946464 -23.51927466402458
ltibia 67.61461796260835
lfoot 18.455686704047164 -14.570030355292037
ltoes -2.495716862422725
rfemur -36.58705030574839 0.2932759519092756 28.927745109376424
rtibia 37.3680655484081
rfoot 0.04605169756734284 -0.27003928038296987
rtoes 5.6285972693913084
lowerback 15.714858772284378 -0.9427480765291427 -0.9309330228683612
upperback -0.5532992202580552 -1.2587956022961269 2.226209518018521
thorax -9.558272546292365 -0.46135275048197155 3.579008513828809
lowerneck -20.78777783561254 -2.4142821546090305 -2.340002948968462
upperneck 13.808897056904003 -2.8644476406934762 1.3897060540824702
head 7.670988377339808 -1.3434183731645901 0.3935688989098739
lclavicle -2.142666617954487e-15 1.4834675141204231e-15
lhumerus -40.395633890502936 -18.80574617334085 96.28287145458498
lradius 104.07298834432036
lwrist 33.691508906645794
lhand -25.952225703948532 -0.40543343305307844
lfingers 7.12502
lthumb 0.5920091664963616 29.56752650266617
rclavicle -2.142666617954487e-15 1.4834675141204231e-15
rhumerus -60.54785103368407 -0.09102018115079424 -94.48351194059502
rradius 108.93482354968695
rwrist -8.394070845240986
rhand -16.80898514710372 40.256024800806095
rfingers 7.12502
rthumb 9.419118657727834 10.33772766005571
41
root -0.024347843425731153 17.665655330379476 14.55449198512116 2.098264344588209 -4.250614757076204 -1.3257464845765392
lfemur 2.9014939566372373 0.4345917528283178 -20.731806470585298
ltibia 74.47957315216132
lfoot 15.68898242491267 -13.034257434289614
ltoes -2.373439506972103
rfemur -35.439390336719086 1.4095123667732081 30.18296876999037
rtibia 42.037923563717484
rfoot -3.371746338227135 -1.7579259257994586
rtoes 10.0778160379956
lowerback 16.135824257312223 -0.5931059158535283 -0.19754480841142685
upperback -0.36903117919882433 -0.6130782469235112 2.5094867990331653
thorax -9.711431262143634 -0.19202300203270228 3.1242966683892517
lowerneck -20.92504473586277 -2.4099268239513214 -2.217296502593693
upperneck 13.801062033729682 -2.8576127123959436 1.1962436541155594
head 7.672767447095744 -1.35188580175228 0.2955773290591327
lclavicle -2.6862744139914253e-15 1.0891584871172197e-15
lhumerus -42.00758864039828 -17.86897119759789 96.92544906169923
lradius 100.41127233160374
lwrist 33.425789974429584
lhand -26.178488108114802 -0.2212663201353926
lfingers 7.12502
lthumb 0.3734932050342994 29.756561917518187
rclavicle -2.6862744139914253e-15 1.0891584871172197e-15
rhumerus -58.280514118926575 1.0108763569531085 -94.90753924899688
rradius 107.5159814400955
rwrist -8.638807346171799
rhand -17.08136633579352 40.028496408109156
rfingers 7.12502
rthumb 9.156292849373633 10.080521352202798
